<svg width="24" height="24" viewBox="0 0 24 24" fill="none" xmlns="http://www.w3.org/2000/svg">
<path d="M5.91667 21C5.43517 21 5.03706 20.8406 4.72222 20.5219C4.40739 20.2031 4.25 19.8 4.25 19.3125C4.25 18.975 4.33333 18.6516 4.5 18.3422C4.66667 18.0328 4.90739 17.8125 5.22222 17.6812L10 15.7688V11.8875C8.77778 13.4062 7.53706 14.55 6.27778 15.3187C5.0185 16.0875 3.59259 16.4719 2 16.4719V14.7844C3.25926 14.7844 4.40739 14.4891 5.44444 13.8984C6.4815 13.3078 7.41667 12.4781 8.25 11.4094L9.86111 9.58125C10.0463 9.35625 10.2639 9.16877 10.5139 9.01875C10.7639 8.86873 11.0371 8.79375 11.3333 8.79375H12.6667C12.9629 8.79375 13.2407 8.86873 13.5 9.01875C13.7593 9.16877 13.9815 9.35625 14.1667 9.58125L15.7778 11.4094C16.6667 12.4406 17.6111 13.261 18.6111 13.8703C19.6111 14.4797 20.7407 14.7844 22 14.7844V16.4719C20.4259 16.4719 19.0046 16.0875 17.7361 15.3187C16.4676 14.55 15.2222 13.4062 14 11.8875V15.7688L18.7778 17.6812C19.0926 17.8125 19.3333 18.0328 19.5 18.3422C19.6667 18.6516 19.75 18.975 19.75 19.3125C19.75 19.8 19.5926 20.2031 19.2778 20.5219C18.9629 20.8406 18.5648 21 18.0833 21H9.66667V20.6906C9.66667 20.2031 9.81483 19.8094 10.1111 19.5094C10.4074 19.2094 10.7963 19.0594 11.2778 19.0594H14.9722C15.1204 19.0594 15.25 19.0031 15.3611 18.8906C15.4722 18.7781 15.5278 18.6469 15.5278 18.4969C15.5278 18.3469 15.4722 18.2156 15.3611 18.1031C15.25 17.9906 15.1204 17.9344 14.9722 17.9344H11.2778C10.4629 17.9344 9.81483 18.1875 9.33333 18.6938C8.85183 19.2 8.61111 19.8656 8.61111 20.6906V21H5.91667ZM12 7.10625C11.4444 7.10625 10.9676 6.90471 10.5694 6.50156C10.1713 6.09842 9.97222 5.61562 9.97222 5.05312C9.97222 4.49062 10.1713 4.00781 10.5694 3.60469C10.9676 3.20156 11.4444 3 12 3C12.5556 3 13.0324 3.20156 13.4306 3.60469C13.8287 4.00781 14.0278 4.49062 14.0278 5.05312C14.0278 5.61562 13.8287 6.09842 13.4306 6.50156C13.0324 6.90471 12.5556 7.10625 12 7.10625Z" fill="#F1533A"/>
</svg>
