<svg width="24" height="24" viewBox="0 0 24 24" fill="none" xmlns="http://www.w3.org/2000/svg">
<path fill-rule="evenodd" clip-rule="evenodd" d="M1.54019 3.83301C1.68409 3.82381 1.84664 3.81836 2.02994 3.81836C2.21324 3.81836 2.37584 3.82381 2.51974 3.83301C3.27439 3.88116 3.69814 4.49881 3.72824 5.18181C3.77109 6.15176 3.81989 8.06411 3.81989 11.7436C3.81989 12.2369 3.81904 13.0655 3.81739 13.6098C4.17414 13.6011 4.60164 13.5924 5.09499 13.5842C4.77189 13.0464 4.58609 12.4167 4.58609 11.7436C4.58609 9.76691 6.18849 8.16446 8.16519 8.16446C8.76944 8.16446 9.33869 8.31421 9.83789 8.57856C10.0604 7.48616 11.007 6.70226 12.1186 6.65856C14.3223 6.57211 16.3638 6.69641 18.0521 6.88441C21.3501 7.25161 23.5043 10.1379 23.5043 13.2998C23.5043 13.5185 23.4696 13.7292 23.4053 13.9265C23.6271 14.1577 23.7626 14.4722 23.7599 14.8182C23.7442 16.8767 23.7094 18.0999 23.6776 18.8146C23.6471 19.5025 23.2182 20.1193 22.4607 20.1661C22.318 20.1749 22.1571 20.1802 21.9759 20.1802C21.7947 20.1802 21.6338 20.1749 21.4912 20.1661C20.7337 20.1193 20.3047 19.5025 20.2742 18.8146C20.2561 18.4069 20.237 17.8339 20.221 17.035C18.6989 17.0736 16.1918 17.1123 12.2587 17.1123C8.31899 17.1123 5.35269 17.0735 3.78134 17.0348C3.76529 17.8355 3.74624 18.4091 3.72824 18.8167C3.69814 19.4997 3.27439 20.1174 2.51969 20.1655C2.37584 20.1747 2.21324 20.1802 2.02994 20.1802C1.84664 20.1802 1.68409 20.1747 1.54019 20.1655C0.78554 20.1174 0.36179 19.4997 0.33164 18.8167C0.28884 17.8463 0.23999 15.4224 0.23999 11.7436C0.23999 8.06411 0.28884 6.15176 0.33164 5.18181C0.36179 4.49886 0.78554 3.88116 1.54019 3.83301ZM17.8258 8.91706C16.2163 8.73786 14.2794 8.62061 12.1988 8.70226C11.9913 8.71041 11.8514 8.85711 11.8356 9.03056C11.787 9.56441 11.7443 10.2535 11.7443 11.0244C11.7443 11.9276 11.8029 12.718 11.8608 13.2775H21.4591C21.4492 11.0076 19.9295 9.15131 17.8258 8.91706ZM8.16519 10.2097C7.31804 10.2097 6.63129 10.8964 6.63129 11.7436C6.63129 12.5908 7.31804 13.2775 8.16519 13.2775C9.01234 13.2775 9.69914 12.5908 9.69914 11.7436C9.69914 10.8964 9.01239 10.2097 8.16519 10.2097Z" fill="#F1533A"/>
</svg>
